<svg preserveAspectRatio="none" width="100%" height="100%" overflow="visible" style="display: block;" viewBox="0 0 14.8607 15" fill="none" xmlns="http://www.w3.org/2000/svg">
<path id="Vector" fill-rule="evenodd" clip-rule="evenodd" d="M5.26942 4.47336L3.47033 3.05601C4.31488 2.25751 5.40142 1.70232 6.68037 1.54531V3.5625H8.18037V1.5453C9.40877 1.69608 10.4591 2.2141 11.2881 2.96162L9.55673 4.50219L10.5538 5.62281L12.2684 4.09719C12.799 4.88933 13.1511 5.80333 13.2917 6.75H10.9928V8.25H13.3341C13.2126 9.54838 12.6697 10.8152 11.6282 11.8405L12.6805 12.9095C14.2378 11.3765 14.9074 9.40622 14.8582 7.48081C14.8117 5.66663 14.128 3.88183 12.9404 2.50928C11.6415 1.00794 9.73766 0 7.43037 0C5.04204 0 3.08742 1.07971 1.78753 2.667C0.334502 4.44129 -0.310587 6.85975 0.143236 9.14603C0.413811 10.5091 1.07488 11.8213 2.18019 12.9095L3.23251 11.8405C2.51629 11.1354 2.03782 10.3186 1.76841 9.458L4.5154 8.3862L3.97017 6.9888L1.50607 7.95022C1.44835 6.64052 1.81102 5.31798 2.51603 4.21377L4.34115 5.65164L5.26942 4.47336ZM4.80536 12.375C4.80536 11.1859 5.59605 10.1814 6.68036 9.8587V5.625H8.18036V9.8587C9.26467 10.1814 10.0554 11.1859 10.0554 12.375C10.0554 13.8247 8.88011 15 7.43036 15C5.98062 15 4.80536 13.8247 4.80536 12.375ZM6.30536 12.375C6.30536 11.7537 6.80904 11.25 7.43036 11.25C8.05168 11.25 8.55536 11.7537 8.55536 12.375C8.55536 12.9963 8.05168 13.5 7.43036 13.5C6.80904 13.5 6.30536 12.9963 6.30536 12.375Z" fill="#4E5969"/>
</svg>
