<svg preserveAspectRatio="none" width="100%" height="100%" overflow="visible" style="display: block;" viewBox="0 0 38 38" fill="none" xmlns="http://www.w3.org/2000/svg">
<path id="Vector" fill-rule="evenodd" clip-rule="evenodd" d="M2 0C0.89543 0 0 0.89543 0 2V15C0 16.1046 0.89543 17 2 17H15C16.1046 17 17 16.1046 17 15V2C17 0.89543 16.1046 0 15 0H2ZM4 13V4H13V13H4ZM23 0C21.8954 0 21 0.89543 21 2V15C21 16.1046 21.8954 17 23 17H36C37.1046 17 38 16.1046 38 15V2C38 0.89543 37.1046 0 36 0H23ZM25 13V4H34V13H25ZM0 23C0 21.8954 0.89543 21 2 21H15C16.1046 21 17 21.8954 17 23V36C17 37.1046 16.1046 38 15 38H2C0.89543 38 0 37.1046 0 36V23ZM4 25V34H13V25H4ZM23 21C21.8954 21 21 21.8954 21 23V36C21 37.1046 21.8954 38 23 38H36C37.1046 38 38 37.1046 38 36V23C38 21.8954 37.1046 21 36 21H23ZM25 34V25H34V34H25Z" fill="#4E5969"/>
</svg>
