<svg preserveAspectRatio="none" width="100%" height="100%" overflow="visible" style="display: block;" viewBox="0 0 14.25 14.25" fill="none" xmlns="http://www.w3.org/2000/svg">
<path id="Vector" fill-rule="evenodd" clip-rule="evenodd" d="M0.75 0C0.335786 0 0 0.335786 0 0.75V5.625C0 6.03921 0.335786 6.375 0.75 6.375H5.625C6.03921 6.375 6.375 6.03921 6.375 5.625V0.75C6.375 0.335786 6.03921 0 5.625 0H0.75ZM1.5 4.875V1.5H4.875V4.875H1.5ZM8.625 0C8.21079 0 7.875 0.335786 7.875 0.75V5.625C7.875 6.03921 8.21079 6.375 8.625 6.375H13.5C13.9142 6.375 14.25 6.03921 14.25 5.625V0.75C14.25 0.335786 13.9142 0 13.5 0H8.625ZM9.375 4.875V1.5H12.75V4.875H9.375ZM0 8.625C0 8.21079 0.335786 7.875 0.75 7.875H5.625C6.03921 7.875 6.375 8.21079 6.375 8.625V13.5C6.375 13.9142 6.03921 14.25 5.625 14.25H0.75C0.335786 14.25 0 13.9142 0 13.5V8.625ZM1.5 9.375V12.75H4.875V9.375H1.5ZM8.625 7.875C8.21079 7.875 7.875 8.21079 7.875 8.625V13.5C7.875 13.9142 8.21079 14.25 8.625 14.25H13.5C13.9142 14.25 14.25 13.9142 14.25 13.5V8.625C14.25 8.21079 13.9142 7.875 13.5 7.875H8.625ZM9.375 12.75V9.375H12.75V12.75H9.375Z" fill="#165DFF"/>
</svg>
