<svg preserveAspectRatio="none" width="100%" height="100%" overflow="visible" style="display: block;" viewBox="0 0 46 46" fill="none" xmlns="http://www.w3.org/2000/svg">
<g id="wallet" filter="url(#filter0_d_0_273)">
<rect x="6" y="4" width="34" height="34" fill="url(#paint0_linear_0_273)"/>
<rect x="6.5" y="4.5" width="33" height="33" stroke="var(--stroke-0, white)"/>
<g id="wallet_2">
<path id="Vector" d="M29.75 24V27C29.75 27.1989 29.671 27.3897 29.5303 27.5303C29.3897 27.671 29.1989 27.75 29 27.75H17.75C17.3522 27.75 16.9706 27.592 16.6893 27.3107C16.408 27.0294 16.25 26.6478 16.25 26.25V15.75C16.25 15.3522 16.408 14.9706 16.6893 14.6893C16.9706 14.408 17.3522 14.25 17.75 14.25H27.5C27.6989 14.25 27.8897 14.329 28.0303 14.4697C28.171 14.6103 28.25 14.8011 28.25 15V17.25M16.25 15.75C16.25 16.1478 16.408 16.5294 16.6893 16.8107C16.9706 17.092 17.3522 17.25 17.75 17.25H29C29.1989 17.25 29.3897 17.329 29.5303 17.4697C29.671 17.6103 29.75 17.8011 29.75 18V21M29.75 21H27.5C27.1022 21 26.7206 21.158 26.4393 21.4393C26.158 21.7206 26 22.1022 26 22.5C26 22.8978 26.158 23.2794 26.4393 23.5607C26.7206 23.842 27.1022 24 27.5 24H29.75M29.75 21C29.9489 21 30.1397 21.079 30.2803 21.2197C30.421 21.3603 30.5 21.5511 30.5 21.75V23.25C30.5 23.4489 30.421 23.6397 30.2803 23.7803C30.1397 23.921 29.9489 24 29.75 24" stroke="var(--stroke-0, #EF4444)" stroke-width="2" stroke-linecap="round"/>
</g>
<circle id="Ellipse" cx="15" cy="29" r="2.5" fill="var(--fill-0, white)" stroke="var(--stroke-0, #EF4444)"/>
</g>
<defs>
<filter id="filter0_d_0_273" x="0" y="0" width="46" height="46" filterUnits="userSpaceOnUse" color-interpolation-filters="sRGB">
<feFlood flood-opacity="0" result="BackgroundImageFix"/>
<feColorMatrix in="SourceAlpha" type="matrix" values="0 0 0 0 0 0 0 0 0 0 0 0 0 0 0 0 0 0 127 0" result="hardAlpha"/>
<feOffset dy="2"/>
<feGaussianBlur stdDeviation="3"/>
<feColorMatrix type="matrix" values="0 0 0 0 0 0 0 0 0 0 0 0 0 0 0 0 0 0 0.0784314 0"/>
<feBlend mode="normal" in2="BackgroundImageFix" result="effect1_dropShadow_0_273"/>
<feBlend mode="normal" in="SourceGraphic" in2="effect1_dropShadow_0_273" result="shape"/>
</filter>
<linearGradient id="paint0_linear_0_273" x1="12.8" y1="4" x2="12.8" y2="38" gradientUnits="userSpaceOnUse">
<stop stop-color="white"/>
<stop offset="1" stop-color="#FFE4E4"/>
</linearGradient>
</defs>
</svg>
