<svg preserveAspectRatio="none" width="100%" height="100%" overflow="visible" style="display: block;" viewBox="0 0 46 46" fill="none" xmlns="http://www.w3.org/2000/svg">
<g id="gear-progress" filter="url(#filter0_d_0_332)">
<rect x="6" y="4" width="34" height="34" fill="url(#paint0_linear_0_332)"/>
<rect x="6.5" y="4.5" width="33" height="33" stroke="var(--stroke-0, white)"/>
<g id="settings">
<path id="Vector" d="M21.2529 15.1027C21.2942 14.668 21.4962 14.2643 21.8192 13.9704C22.1423 13.6766 22.5633 13.5138 23 13.5138C23.4367 13.5138 23.8578 13.6766 24.1808 13.9704C24.5039 14.2643 24.7058 14.668 24.7472 15.1027C24.772 15.3836 24.8641 15.6543 25.0158 15.892C25.1674 16.1297 25.3741 16.3273 25.6183 16.4682C25.8625 16.6091 26.137 16.6891 26.4187 16.7014C26.7004 16.7138 26.9809 16.658 27.2364 16.539C27.6333 16.3588 28.0829 16.3327 28.4979 16.4658C28.9129 16.5989 29.2635 16.8817 29.4816 17.2591C29.6996 17.6364 29.7694 18.0814 29.6774 18.5074C29.5854 18.9334 29.3382 19.3099 28.9839 19.5637C28.7532 19.7256 28.5649 19.9407 28.4349 20.1907C28.3048 20.4408 28.237 20.7185 28.237 21.0004C28.237 21.2822 28.3048 21.5599 28.4349 21.81C28.5649 22.06 28.7532 22.2751 28.9839 22.437C29.3382 22.6908 29.5854 23.0673 29.6774 23.4933C29.7694 23.9193 29.6996 24.3643 29.4816 24.7417C29.2635 25.119 28.9129 25.4018 28.4979 25.5349C28.0829 25.668 27.6333 25.6419 27.2364 25.4617C26.9809 25.3427 26.7004 25.2869 26.4187 25.2993C26.137 25.3116 25.8625 25.3916 25.6183 25.5325C25.3741 25.6734 25.1674 25.871 25.0158 26.1087C24.8641 26.3464 24.772 26.6171 24.7472 26.898C24.7058 27.3327 24.5039 27.7364 24.1808 28.0303C23.8578 28.3241 23.4367 28.4869 23 28.4869C22.5633 28.4869 22.1423 28.3241 21.8192 28.0303C21.4962 27.7364 21.2942 27.3327 21.2529 26.898C21.2281 26.617 21.136 26.3462 20.9843 26.1084C20.8326 25.8707 20.6259 25.6729 20.3816 25.532C20.1373 25.3911 19.8626 25.3111 19.5809 25.2989C19.2991 25.2867 19.0185 25.3425 18.7629 25.4617C18.3661 25.6419 17.9164 25.668 17.5014 25.5349C17.0864 25.4018 16.7358 25.119 16.5178 24.7417C16.2998 24.3643 16.23 23.9193 16.3219 23.4933C16.4139 23.0673 16.6611 22.6908 17.0154 22.437C17.2461 22.2751 17.4345 22.06 17.5645 21.81C17.6945 21.5599 17.7624 21.2822 17.7624 21.0004C17.7624 20.7185 17.6945 20.4408 17.5645 20.1907C17.4345 19.9407 17.2461 19.7256 17.0154 19.5637C16.6616 19.3098 16.4149 18.9334 16.3231 18.5077C16.2313 18.082 16.3011 17.6374 16.5189 17.2603C16.7367 16.8831 17.0869 16.6005 17.5015 16.4672C17.9161 16.3339 18.3654 16.3595 18.7622 16.539C19.0177 16.658 19.2982 16.7138 19.5799 16.7014C19.8616 16.6891 20.1361 16.6091 20.3803 16.4682C20.6245 16.3273 20.8312 16.1297 20.9828 15.892C21.1344 15.6543 21.2266 15.3836 21.2514 15.1027M25.2494 21.0006C25.2494 22.2433 24.2421 23.2506 22.9994 23.2506C21.7568 23.2506 20.7494 22.2433 20.7494 21.0006C20.7494 19.758 21.7568 18.7506 22.9994 18.7506C24.2421 18.7506 25.2494 19.758 25.2494 21.0006Z" stroke="var(--stroke-0, #F97316)" stroke-width="2" stroke-linecap="round"/>
</g>
<circle id="Ellipse" cx="31" cy="29" r="2.5" fill="var(--fill-0, white)" stroke="var(--stroke-0, #F97316)"/>
</g>
<defs>
<filter id="filter0_d_0_332" x="0" y="0" width="46" height="46" filterUnits="userSpaceOnUse" color-interpolation-filters="sRGB">
<feFlood flood-opacity="0" result="BackgroundImageFix"/>
<feColorMatrix in="SourceAlpha" type="matrix" values="0 0 0 0 0 0 0 0 0 0 0 0 0 0 0 0 0 0 127 0" result="hardAlpha"/>
<feOffset dy="2"/>
<feGaussianBlur stdDeviation="3"/>
<feColorMatrix type="matrix" values="0 0 0 0 0 0 0 0 0 0 0 0 0 0 0 0 0 0 0.0784314 0"/>
<feBlend mode="normal" in2="BackgroundImageFix" result="effect1_dropShadow_0_332"/>
<feBlend mode="normal" in="SourceGraphic" in2="effect1_dropShadow_0_332" result="shape"/>
</filter>
<linearGradient id="paint0_linear_0_332" x1="12.8" y1="4" x2="12.8" y2="38" gradientUnits="userSpaceOnUse">
<stop stop-color="white"/>
<stop offset="1" stop-color="#FFE7B8"/>
</linearGradient>
</defs>
</svg>
